<?xml version="1.0" encoding="UTF-8" standalone="no"?>
<svg
   xmlns:dc="http://purl.org/dc/elements/1.1/"
   xmlns:cc="http://creativecommons.org/ns#"
   xmlns:rdf="http://www.w3.org/1999/02/22-rdf-syntax-ns#"
   xmlns:svg="http://www.w3.org/2000/svg"
   xmlns="http://www.w3.org/2000/svg"
   xmlns:sodipodi="http://sodipodi.sourceforge.net/DTD/sodipodi-0.dtd"
   xmlns:inkscape="http://www.inkscape.org/namespaces/inkscape"
   version="1.1"
   id="svg4338"
   viewBox="0 0 860.43691 310.15213"
   height="310.15213"
   width="860.43689"
   sodipodi:docname="puppet-logo.svg"
   inkscape:version="0.92+devel (0b0285609a, 2018-02-06, custom)">
  <sodipodi:namedview
     pagecolor="#ffffff"
     bordercolor="#666666"
     inkscape:document-rotation="0"
     borderopacity="1"
     objecttolerance="10"
     gridtolerance="10"
     guidetolerance="10"
     inkscape:pageopacity="0"
     inkscape:pageshadow="2"
     inkscape:window-width="3840"
     inkscape:window-height="2160"
     id="namedview863"
     showgrid="false"
     fit-margin-top="5"
     fit-margin-left="5"
     fit-margin-right="5"
     fit-margin-bottom="5"
     inkscape:zoom="3.0750002"
     inkscape:cx="430.21842"
     inkscape:cy="155.07624"
     inkscape:window-x="0"
     inkscape:window-y="0"
     inkscape:window-maximized="0"
     inkscape:current-layer="svg4338" />
  <defs
     id="defs4340">
    <clipPath
       id="clipPath4158"
       clipPathUnits="userSpaceOnUse">
      <path
         id="path4160"
         d="M 0,792 H 612 V 0 H 0 Z"
         inkscape:connector-curvature="0" />
    </clipPath>
  </defs>
  <metadata
     id="metadata4343">
    <rdf:RDF>
      <cc:Work
         rdf:about="">
        <dc:format>image/svg+xml</dc:format>
        <dc:type
           rdf:resource="http://purl.org/dc/dcmitype/StillImage" />
        <dc:title></dc:title>
      </cc:Work>
    </rdf:RDF>
  </metadata>
  <g
     style="opacity:1;fill:#ffa61a;fill-opacity:1"
     id="g4156"
     clip-path="url(#clipPath4158)"
     transform="matrix(10.869564,0,0,-10.869564,-425.43473,8448.5534)">
    <g
       id="g4162"
       transform="translate(60.6941,749.193)"
       style="fill:#ffa61a;fill-opacity:1">
      <path
         inkscape:connector-curvature="0"
         d="M 0,0 H -3.068 V 13.807 H 0 v -0.883 c 0.384,0.541 1.374,1.06 2.457,1.06 2.934,0 4.568,-2.437 4.568,-5.281 C 7.025,5.86 5.408,3.445 2.475,3.445 1.391,3.445 0.384,3.964 0,4.506 Z m 0,7.056 c 0.384,-0.7 1.012,-1.174 1.825,-1.174 1.512,0 2.379,1.219 2.379,2.821 0,1.625 -0.849,2.844 -2.361,2.844 C 1.008,11.547 0.384,11.05 0,10.373 Z"
         style="fill:#ffa61a;fill-opacity:1;fill-rule:nonzero;stroke:none"
         id="path4164" />
    </g>
    <g
       id="g4166"
       transform="translate(77.9529,753.0282)"
       style="fill:#ffa61a;fill-opacity:1">
      <path
         inkscape:connector-curvature="0"
         d="M 0,0 H -3.068 V 0.761 C -3.452,0.129 -4.545,-0.39 -5.719,-0.39 c -2.257,0 -3.486,1.489 -3.486,3.723 V 9.972 H -6.52 V 3.898 c 0,-1.061 0.53,-1.783 1.636,-1.783 0.857,0 1.816,0.519 1.816,1.399 V 9.972 H 0 Z"
         style="fill:#ffa61a;fill-opacity:1;fill-rule:nonzero;stroke:none"
         id="path4168" />
    </g>
    <g
       id="g4170"
       transform="translate(82.5554,749.193)"
       style="fill:#ffa61a;fill-opacity:1">
      <path
         inkscape:connector-curvature="0"
         d="M 0,0 H -2.685 V 13.807 H 0 v -0.883 c 0.384,0.541 1.411,1.06 2.494,1.06 2.934,0 4.587,-2.437 4.587,-5.281 C 7.081,5.86 5.436,3.445 2.502,3.445 1.419,3.445 0.384,3.964 0,4.506 Z m 0,7.056 c 0.384,-0.7 1.05,-1.174 1.862,-1.174 1.512,0 2.398,1.219 2.398,2.821 0,1.625 -0.877,2.844 -2.389,2.844 C 1.036,11.547 0.384,11.05 0,10.373 Z"
         style="fill:#ffa61a;fill-opacity:1;fill-rule:nonzero;stroke:none"
         id="path4172" />
    </g>
    <g
       id="g4174"
       transform="translate(93.6777,749.193)"
       style="fill:#ffa61a;fill-opacity:1">
      <path
         inkscape:connector-curvature="0"
         d="M 0,0 H -2.685 V 13.807 H 0 v -0.883 c 0.384,0.541 1.424,1.06 2.507,1.06 2.934,0 4.594,-2.437 4.594,-5.281 C 7.101,5.86 5.446,3.445 2.512,3.445 1.429,3.445 0.384,3.964 0,4.506 Z m 0,7.056 c 0.384,-0.7 1.063,-1.174 1.875,-1.174 1.512,0 2.405,1.219 2.405,2.821 0,1.625 -0.887,2.844 -2.399,2.844 C 1.046,11.547 0.384,11.05 0,10.373 Z"
         style="fill:#ffa61a;fill-opacity:1;fill-rule:nonzero;stroke:none"
         id="path4176" />
    </g>
    <g
       id="g4178"
       transform="translate(110.8113,756.0964)"
       style="fill:#ffa61a;fill-opacity:1">
      <path
         inkscape:connector-curvature="0"
         d="m 0,0 c -0.361,-1.918 -1.941,-3.49 -4.469,-3.49 -2.933,0 -4.896,2.16 -4.896,5.274 0,3.047 2.059,5.289 4.88,5.289 2.957,0 4.61,-2.046 4.61,-5.002 v -0.92 h -6.782 c 0.09,-1.534 0.948,-2.415 2.188,-2.415 0.949,0 1.648,0.497 1.874,1.264 z m -6.59,3.068 h 3.904 c -0.022,0.767 -0.654,1.896 -1.805,1.896 -1.083,0 -1.851,-0.745 -2.099,-1.896"
         style="fill:#ffa61a;fill-opacity:1;fill-rule:nonzero;stroke:none"
         id="path4180" />
    </g>
    <g
       id="g4182"
       transform="translate(112.8542,760.6989)"
       style="fill:#ffa61a;fill-opacity:1">
      <path
         inkscape:connector-curvature="0"
         d="M 0,0 H -1.534 V 2.301 H 0 V 4.986 H 2.685 V 2.301 H 4.986 V 0 H 2.685 v -4.427 c 0,-0.79 0.394,-1.151 1.116,-1.151 0.429,0 0.801,0.135 1.185,0.338 V -7.722 C 4.602,-7.925 4.005,-8.038 3.26,-8.038 1.207,-8.038 0,-7.023 0,-4.788 Z"
         style="fill:#ffa61a;fill-opacity:1;fill-rule:nonzero;stroke:none"
         id="path4184" />
    </g>
    <path
       inkscape:connector-curvature="0"
       d="M 53.407,769.136 H 47.271 V 763 h 6.136 z"
       style="fill:#ffa61a;fill-opacity:1;fill-rule:nonzero;stroke:none"
       id="path4186" />
    <path
       inkscape:connector-curvature="0"
       d="m 43.819,757.631 h -1.918 v 1.918 h 1.918 z m 2.301,4.218 H 39.6 v -6.52 h 6.52 z"
       style="fill:#ffa61a;fill-opacity:1;fill-rule:nonzero;stroke:none"
       id="path4188" />
    <g
       id="g4190"
       transform="translate(47.4038,767.5784)"
       style="fill:#ffa61a;fill-opacity:1">
      <path
         inkscape:connector-curvature="0"
         d="M 0,0 -3.874,3.874 -2.378,5.37 1.496,1.496 Z"
         style="fill:#ffa61a;fill-opacity:1;fill-rule:nonzero;stroke:none"
         id="path4192" />
    </g>
    <g
       id="g4194"
       transform="translate(46.0579,760.3588)"
       style="fill:#ffa61a;fill-opacity:1">
      <path
         inkscape:connector-curvature="0"
         d="M 0,0 -1.496,1.496 1.57,4.562 3.066,3.066 Z"
         style="fill:#ffa61a;fill-opacity:1;fill-rule:nonzero;stroke:none"
         id="path4196" />
    </g>
    <path
       inkscape:connector-curvature="0"
       d="m 43.819,772.588 h -1.918 v 1.918 h 1.918 z m 2.301,4.219 H 39.6 v -6.52 h 6.52 z"
       style="fill:#ffa61a;fill-opacity:1;fill-rule:nonzero;stroke:none"
       id="path4198" />
  </g>
</svg>
